<?xml version="1.0" encoding="utf-8"?>

<svg version="1.1" xmlns="http://www.w3.org/2000/svg" xmlns:xlink="http://www.w3.org/1999/xlink" x="0px" y="0px"
	 viewBox="0 0 416.5 512" style="enable-background:new 0 0 416.5 512;" xml:space="preserve">
<g>
	<path id="frame" d="M330.7,0H160.5h-13.2L138,9.3L9.3,138.1L0,147.4v13.2v265.5C0,473.5,38.5,512,85.9,512h244.8
		c47.4,0,85.9-38.5,85.9-85.9V85.9C416.5,38.5,378,0,330.7,0z M384.7,426.1c0,29.9-24.2,54.1-54.1,54.1H85.8
		c-29.9,0-54.1-24.2-54.1-54.1V160.6h83.7c24.9,0,45.1-20.2,45.1-45.1V31.8h170.2c29.9,0,54.1,24.2,54.1,54.1L384.7,426.1
		L384.7,426.1z"/>
	<path id="s" class="svg" d="M132.5,296.7l-4.8-0.7c-10.6-1.5-14.3-5-14.3-10.1c0-5.8,4.3-9.8,12.4-9.8c5.7,0,11.3,1.6,15.7,3.8
		c1.9,0.9,3.9,1.5,5.8,1.5c4.8,0,8.6-3.6,8.6-8.6c0-3.2-1.5-5.9-4.7-7.9c-5.4-3.4-15.5-6.1-25.6-6.1c-19.8,0-32.4,11.2-32.4,28
		c0,16.1,10.2,24.9,28.9,27.5l4.8,0.7c10.9,1.5,14.1,4.8,14.1,10.2c0,6.3-5.2,10.8-14.9,10.8c-6.7,0-12.1-1.7-19.6-5.9
		c-1.6-0.9-3.6-1.6-5.8-1.6c-5.1,0-8.9,3.9-8.9,8.8c0,3.2,1.6,6.3,4.7,8.3c6.1,3.8,15.9,7.8,28.8,7.8c23.8,0,35.9-12.2,35.9-28.8
		C161.3,307.8,151.5,299.4,132.5,296.7z"/>
	<path id="v" class="svg" d="M233.4,259.4c-4.6,0-7.9,2.4-9.6,7.7l-16.7,54.5h-0.4l-17.6-54.5c-1.7-5.2-5-7.7-9.6-7.7c-5.7,0-9.7,4.2-9.7,9.3
		c0,1.3,0.3,2.8,0.7,4.2l23.3,68.1c3,8.5,6.7,11.6,12.7,11.6c5.8,0,9.6-3.1,12.5-11.6l23.3-68.1c0.4-1.3,0.7-2.8,0.7-4.2
		C242.9,263.6,239,259.4,233.4,259.4z"/>
	<path id="g" class="svg" d="M316.8,300.8H298c-5.1,0-8.3,3.1-8.3,7.8c0,4.7,3.2,7.8,8.3,7.8h6.2c0.5,0,0.8,0.3,0.8,0.8c0,3.5-0.3,6.6-1.1,9
		c-1.9,5.8-7.7,9.4-14.7,9.4c-7.9,0-12.9-3.9-14.9-10.1c-1.1-3.4-1.5-7.8-1.5-19.6c0-11.8,0.4-16.1,1.5-19.5
		c2-6.3,6.9-10.2,14.7-10.2c5.9,0,10.4,1.9,13.9,6.7c2.7,3.8,5.4,4.9,8.7,4.9c5,0,9-3.6,9-8.9c0-2.2-0.7-4-1.8-5.9
		c-4.8-8.2-15.1-14.3-29.9-14.3c-16.3,0-28.9,7.4-33.6,22.2c-2,6.5-2.6,11.6-2.6,25c0,13.5,0.5,18.6,2.6,25
		c4.7,14.8,17.4,22.2,33.6,22.2c16.3,0,28.7-8.2,33.4-22.9c1.6-5.1,2.3-12.6,2.3-20.7v-1C324.6,303.7,321.8,300.8,316.8,300.8z"/>
</g>
</svg>
